# xmcd
#
# Track frame offsets:
#	150
#	20979
#	41537
#	60163
#	79697
#	100708
#	109913
#	124893
#	151915
#	167109
#	186133
#	207471
#	226589
#	248483
#	262684
#	277327
#	295432
#	314730
#	332955
#
# Disc length: 4707
#
# Revision: 2
# Processed by: cddbd v1.5.1PL0 Copyright (c) Steve Scherf et al.
# Submitted via: EasyCDDAExtractor 5.1.0
# Normalized: r1:DSETVAR1
#
DISCID=0f126113
DTITLE=Various Artist - Divas do Brasil Vol. 2
DYEAR=2003
DGENRE=Dance
TTITLE0=Simone - Lenha
TTITLE1=Fafá de Belém - Amor cigano
TTITLE2=Leila Pinheiro - Feliz
TTITLE3=Zizi Possi - O amor vem pra cada um
TTITLE4=Sandra de Sá - Sozinha
TTITLE5=Nara Leão - Cuitelinho
TTITLE6=Ângela Ro Ro - Só nos resta viver
TTITLE7=Amelinha - Água e luz
TTITLE8=Gal Costa - Folhetim
TTITLE9=Marina Lima - Charme do mundo
TTITLE10=Rita Lee - Mania de você
TTITLE11=Maria Bethânia - Tá combinado
TTITLE12=Joanna - Amor bandido
TTITLE13=Jane Duboc - Besame
TTITLE14=Elba Ramalho - Vem ficar comigo
TTITLE15=Verônica Sabino - Todo o sentimento
TTITLE16=Zélia Duncan - Lá vou eu
TTITLE17=Tetê Espíndola - Escrito nas estrelas
TTITLE18=Marisa Monte - De noite na cama
EXTD=
EXTT0=
EXTT1=
EXTT2=
EXTT3=
EXTT4=
EXTT5=
EXTT6=
EXTT7=
EXTT8=
EXTT9=
EXTT10=
EXTT11=
EXTT12=
EXTT13=
EXTT14=
EXTT15=
EXTT16=
EXTT17=
EXTT18=
PLAYORDER=
